<?xml version="1.0" encoding="UTF-8"?>
<svg xmlns="http://www.w3.org/2000/svg" width="256" height="256" viewBox="0 0 256 256" preserveAspectRatio="xMidYMid meet" data-icon-size="256x256">
<title>Boom Lift</title>
<desc>Editable 256 by 256 vector icon for Boom Lift. Industrial navy, steel and orange application artwork.</desc>
<defs>
<linearGradient id="silver" x1="0" y1="0" x2="1" y2="1"><stop offset="0" stop-color="#FFFFFF"/><stop offset="0.45" stop-color="#DDE4E9"/><stop offset="1" stop-color="#78848E"/></linearGradient>
<linearGradient id="dark" x1="0" y1="0" x2="1" y2="1"><stop offset="0" stop-color="#55636E"/><stop offset="0.55" stop-color="#26333E"/><stop offset="1" stop-color="#10171E"/></linearGradient>
<linearGradient id="orange" x1="0" y1="0" x2="1" y2="1"><stop offset="0" stop-color="#FF9B35"/><stop offset="0.52" stop-color="#FF6B00"/><stop offset="1" stop-color="#D94F00"/></linearGradient>
<linearGradient id="glass" x1="0" y1="0" x2="1" y2="1"><stop offset="0" stop-color="#E2F6FE"/><stop offset="0.48" stop-color="#A9D9EB"/><stop offset="1" stop-color="#3B6D85"/></linearGradient>
<linearGradient id="tire" x1="0" y1="0" x2="1" y2="1"><stop offset="0" stop-color="#38444D"/><stop offset="1" stop-color="#070A0D"/></linearGradient>
</defs>
<rect x="8" y="8" width="240" height="240" rx="31" fill="#041F3D" stroke="#173A5B" stroke-width="2" opacity="1"/>
<path d="M39 17 H217 Q239 17 239 39" fill="none" stroke="#31516E" stroke-width="1.6" opacity="0.72" stroke-linecap="round" stroke-linejoin="round"/>
<ellipse cx="128" cy="213" rx="82" ry="12" fill="#000" stroke="none" stroke-width="1" opacity="0.23"/>
<rect x="48" y="177" width="117" height="23" rx="5" fill="url(#dark)" stroke="#7D8992" stroke-width="2" opacity="1"/>
<circle cx="70" cy="205" r="13" fill="url(#tire)" stroke="#5C6871" stroke-width="2" opacity="1"/>
<circle cx="70" cy="205" r="5.98" fill="url(#silver)" stroke="#25313B" stroke-width="1.7" opacity="1"/>
<circle cx="70" cy="205" r="2.08" fill="#FF6B00" stroke="none" stroke-width="1" opacity="1"/>
<circle cx="144" cy="205" r="13" fill="url(#tire)" stroke="#5C6871" stroke-width="2" opacity="1"/>
<circle cx="144" cy="205" r="5.98" fill="url(#silver)" stroke="#25313B" stroke-width="1.7" opacity="1"/>
<circle cx="144" cy="205" r="2.08" fill="#FF6B00" stroke="none" stroke-width="1" opacity="1"/>
<line x1="123" y1="177" x2="162" y2="107" stroke="url(#orange)" stroke-width="15" opacity="1" stroke-linecap="round"/>
<line x1="162" y1="107" x2="195" y2="76" stroke="url(#orange)" stroke-width="14" opacity="1" stroke-linecap="round"/>
<rect x="184" y="57" width="42" height="27" rx="5" fill="url(#silver)" stroke="#7D8992" stroke-width="2" opacity="1"/>
</svg>
