<?xml version="1.0" encoding="UTF-8"?>
<svg xmlns="http://www.w3.org/2000/svg" width="256" height="256" viewBox="0 0 256 256" preserveAspectRatio="xMidYMid meet" data-icon-size="256x256">
<title>Sell/Create Listing</title>
<desc>Editable 256 by 256 vector icon for Sell/Create Listing. Industrial navy, steel and orange application artwork.</desc>
<defs>
<linearGradient id="silver" x1="0" y1="0" x2="1" y2="1"><stop offset="0" stop-color="#FFFFFF"/><stop offset="0.45" stop-color="#DDE4E9"/><stop offset="1" stop-color="#78848E"/></linearGradient>
<linearGradient id="dark" x1="0" y1="0" x2="1" y2="1"><stop offset="0" stop-color="#55636E"/><stop offset="0.55" stop-color="#26333E"/><stop offset="1" stop-color="#10171E"/></linearGradient>
<linearGradient id="orange" x1="0" y1="0" x2="1" y2="1"><stop offset="0" stop-color="#FF9B35"/><stop offset="0.52" stop-color="#FF6B00"/><stop offset="1" stop-color="#D94F00"/></linearGradient>
<linearGradient id="glass" x1="0" y1="0" x2="1" y2="1"><stop offset="0" stop-color="#E2F6FE"/><stop offset="0.48" stop-color="#A9D9EB"/><stop offset="1" stop-color="#3B6D85"/></linearGradient>
<linearGradient id="tire" x1="0" y1="0" x2="1" y2="1"><stop offset="0" stop-color="#38444D"/><stop offset="1" stop-color="#070A0D"/></linearGradient>
</defs>
<rect x="8" y="8" width="240" height="240" rx="31" fill="#041F3D" stroke="#173A5B" stroke-width="2" opacity="1"/>
<path d="M39 17 H217 Q239 17 239 39" fill="none" stroke="#31516E" stroke-width="1.6" opacity="0.72" stroke-linecap="round" stroke-linejoin="round"/>
<path d="M55 46 H161 L195 80 V208 H55 Z" fill="url(#silver)" stroke="#68747D" stroke-width="2" opacity="1" stroke-linecap="round" stroke-linejoin="round"/>
<polygon points="161.0,46.0 195.0,80.0 161.0,80.0" fill="#AEB8C0" stroke="#68747D" stroke-width="1" opacity="1"/>
<rect x="79" y="104" width="99" height="63" rx="6" fill="url(#glass)" stroke="#7D8992" stroke-width="1" opacity="1"/>
<circle cx="179" cy="180" r="24" fill="#FF6B00" stroke="#F8FAFC" stroke-width="2" opacity="1"/>
<line x1="166" y1="180" x2="192" y2="180" stroke="#F8FAFC" stroke-width="5" opacity="1" stroke-linecap="round"/>
<line x1="179" y1="167" x2="179" y2="193" stroke="#F8FAFC" stroke-width="5" opacity="1" stroke-linecap="round"/>
</svg>
