<?xml version="1.0" encoding="UTF-8"?>
<svg xmlns="http://www.w3.org/2000/svg" width="256" height="256" viewBox="0 0 256 256" preserveAspectRatio="xMidYMid meet" data-icon-size="256x256">
<title>Negotiation History</title>
<desc>Editable 256 by 256 vector icon for Negotiation History. Industrial navy, steel and orange application artwork.</desc>
<defs>
<linearGradient id="silver" x1="0" y1="0" x2="1" y2="1"><stop offset="0" stop-color="#FFFFFF"/><stop offset="0.45" stop-color="#DDE4E9"/><stop offset="1" stop-color="#78848E"/></linearGradient>
<linearGradient id="dark" x1="0" y1="0" x2="1" y2="1"><stop offset="0" stop-color="#55636E"/><stop offset="0.55" stop-color="#26333E"/><stop offset="1" stop-color="#10171E"/></linearGradient>
<linearGradient id="orange" x1="0" y1="0" x2="1" y2="1"><stop offset="0" stop-color="#FF9B35"/><stop offset="0.52" stop-color="#FF6B00"/><stop offset="1" stop-color="#D94F00"/></linearGradient>
<linearGradient id="glass" x1="0" y1="0" x2="1" y2="1"><stop offset="0" stop-color="#E2F6FE"/><stop offset="0.48" stop-color="#A9D9EB"/><stop offset="1" stop-color="#3B6D85"/></linearGradient>
<linearGradient id="tire" x1="0" y1="0" x2="1" y2="1"><stop offset="0" stop-color="#38444D"/><stop offset="1" stop-color="#070A0D"/></linearGradient>
</defs>
<rect x="8" y="8" width="240" height="240" rx="31" fill="#041F3D" stroke="#173A5B" stroke-width="2" opacity="1"/>
<path d="M39 17 H217 Q239 17 239 39" fill="none" stroke="#31516E" stroke-width="1.6" opacity="0.72" stroke-linecap="round" stroke-linejoin="round"/>
<circle cx="128" cy="132" r="71" fill="#0B3156" stroke="#597082" stroke-width="3" opacity="1"/>
<line x1="128" y1="132" x2="128" y2="84" stroke="#F8FAFC" stroke-width="6" opacity="1" stroke-linecap="round"/>
<line x1="128" y1="132" x2="166" y2="154" stroke="#FF6B00" stroke-width="6" opacity="1" stroke-linecap="round"/>
<path d="M63 99 Q79 67 111 60" fill="none" stroke="#FF6B00" stroke-width="6" opacity="1" stroke-linecap="round" stroke-linejoin="round"/>
<polygon points="62.0,99.0 61.0,79.0 79.0,92.0" fill="#FF6B00" stroke="none" stroke-width="1" opacity="1"/>
<path d="M193 166 Q177 197 145 204" fill="none" stroke="#4FA8D0" stroke-width="6" opacity="1" stroke-linecap="round" stroke-linejoin="round"/>
<polygon points="194.0,166.0 195.0,186.0 177.0,173.0" fill="#4FA8D0" stroke="none" stroke-width="1" opacity="1"/>
</svg>
