<?xml version="1.0" encoding="UTF-8"?>
<svg xmlns="http://www.w3.org/2000/svg" width="256" height="256" viewBox="0 0 256 256" preserveAspectRatio="xMidYMid meet" data-icon-size="256x256">
<title>Winning Bidder</title>
<desc>Editable 256 by 256 vector icon for Winning Bidder. Industrial navy, steel and orange application artwork.</desc>
<defs>
<linearGradient id="silver" x1="0" y1="0" x2="1" y2="1"><stop offset="0" stop-color="#FFFFFF"/><stop offset="0.45" stop-color="#DDE4E9"/><stop offset="1" stop-color="#78848E"/></linearGradient>
<linearGradient id="dark" x1="0" y1="0" x2="1" y2="1"><stop offset="0" stop-color="#55636E"/><stop offset="0.55" stop-color="#26333E"/><stop offset="1" stop-color="#10171E"/></linearGradient>
<linearGradient id="orange" x1="0" y1="0" x2="1" y2="1"><stop offset="0" stop-color="#FF9B35"/><stop offset="0.52" stop-color="#FF6B00"/><stop offset="1" stop-color="#D94F00"/></linearGradient>
<linearGradient id="glass" x1="0" y1="0" x2="1" y2="1"><stop offset="0" stop-color="#E2F6FE"/><stop offset="0.48" stop-color="#A9D9EB"/><stop offset="1" stop-color="#3B6D85"/></linearGradient>
<linearGradient id="tire" x1="0" y1="0" x2="1" y2="1"><stop offset="0" stop-color="#38444D"/><stop offset="1" stop-color="#070A0D"/></linearGradient>
</defs>
<rect x="8" y="8" width="240" height="240" rx="31" fill="#041F3D" stroke="#173A5B" stroke-width="2" opacity="1"/>
<path d="M39 17 H217 Q239 17 239 39" fill="none" stroke="#31516E" stroke-width="1.6" opacity="0.72" stroke-linecap="round" stroke-linejoin="round"/>
<circle cx="105" cy="124.3" r="14.95" fill="#FF6B00" stroke="#FFB178" stroke-width="1" opacity="1"/>
<path d="M77.4 176.05 Q78.55 141.55 105 140.4 Q131.45 141.55 132.6 176.05 Z" fill="#FF6B00" stroke="#FFB178" stroke-width="1" opacity="1" stroke-linecap="round" stroke-linejoin="round"/>
<path d="M151 76 H202 V104 Q199 139 176 148 Q153 139 151 104 Z" fill="url(#orange)" stroke="#D94F00" stroke-width="2" opacity="1" stroke-linecap="round" stroke-linejoin="round"/>
<polygon points="176.0,93.0 180.2,103.2 191.2,104.1 182.8,111.2 185.4,121.9 176.0,116.2 166.6,121.9 169.2,111.2 160.8,104.1 171.8,103.2" fill="#FFC247" stroke="#F8FAFC" stroke-width="1.5" opacity="1"/>
<rect x="170" y="147" width="12" height="25" rx="0" fill="url(#silver)" stroke="none" stroke-width="1" opacity="1"/>
<rect x="157" y="170" width="38" height="11" rx="3" fill="url(#silver)" stroke="none" stroke-width="1" opacity="1"/>
</svg>
