<?xml version="1.0" encoding="UTF-8"?>
<svg xmlns="http://www.w3.org/2000/svg" width="256" height="256" viewBox="0 0 256 256" preserveAspectRatio="xMidYMid meet" data-icon-size="256x256">
<title>Saved Route/Lane</title>
<desc>Editable 256 by 256 vector icon for Saved Route/Lane. Industrial navy, steel and orange application artwork.</desc>
<defs>
<linearGradient id="silver" x1="0" y1="0" x2="1" y2="1"><stop offset="0" stop-color="#FFFFFF"/><stop offset="0.45" stop-color="#DDE4E9"/><stop offset="1" stop-color="#78848E"/></linearGradient>
<linearGradient id="dark" x1="0" y1="0" x2="1" y2="1"><stop offset="0" stop-color="#55636E"/><stop offset="0.55" stop-color="#26333E"/><stop offset="1" stop-color="#10171E"/></linearGradient>
<linearGradient id="orange" x1="0" y1="0" x2="1" y2="1"><stop offset="0" stop-color="#FF9B35"/><stop offset="0.52" stop-color="#FF6B00"/><stop offset="1" stop-color="#D94F00"/></linearGradient>
<linearGradient id="glass" x1="0" y1="0" x2="1" y2="1"><stop offset="0" stop-color="#E2F6FE"/><stop offset="0.48" stop-color="#A9D9EB"/><stop offset="1" stop-color="#3B6D85"/></linearGradient>
<linearGradient id="tire" x1="0" y1="0" x2="1" y2="1"><stop offset="0" stop-color="#38444D"/><stop offset="1" stop-color="#070A0D"/></linearGradient>
</defs>
<rect x="8" y="8" width="240" height="240" rx="31" fill="#041F3D" stroke="#173A5B" stroke-width="2" opacity="1"/>
<path d="M39 17 H217 Q239 17 239 39" fill="none" stroke="#31516E" stroke-width="1.6" opacity="0.72" stroke-linecap="round" stroke-linejoin="round"/>
<rect x="42" y="44" width="172" height="168" rx="14" fill="#E6ECEF" stroke="#68747D" stroke-width="2" opacity="1"/>
<polyline points="49.0,88.0 91.0,77.0 128.0,97.0 171.0,72.0 207.0,84.0" fill="none" stroke="#AAB4BC" stroke-width="8" opacity="1" stroke-linecap="round" stroke-linejoin="round"/>
<polyline points="52.0,159.0 94.0,139.0 134.0,160.0 178.0,138.0 207.0,156.0" fill="none" stroke="#AAB4BC" stroke-width="8" opacity="1" stroke-linecap="round" stroke-linejoin="round"/>
<line x1="77" y1="50" x2="75" y2="205" stroke="#B5BEC5" stroke-width="7" opacity="1" stroke-linecap="round"/>
<line x1="153" y1="50" x2="158" y2="205" stroke="#B5BEC5" stroke-width="7" opacity="1" stroke-linecap="round"/>
<path d="M67 175 C74 126 111 151 126 106 C139 68 172 111 193 72" fill="none" stroke="#FF6B00" stroke-width="6" opacity="1" stroke-linecap="round" stroke-linejoin="round"/>
<path d="M68 184.8 C59.45 175.8 60.8 165.9 68 165.9 C75.2 165.9 76.55 175.8 68 184.8 Z" fill="#FF6B00" stroke="#FFB47B" stroke-width="1.5" opacity="1" stroke-linecap="round" stroke-linejoin="round"/>
<circle cx="68" cy="172.65" r="2.7" fill="#F8FAFC" stroke="none" stroke-width="1" opacity="1"/>
<path d="M192 82.8 C183.45 73.8 184.8 63.9 192 63.9 C199.2 63.9 200.55 73.8 192 82.8 Z" fill="#FF6B00" stroke="#FFB47B" stroke-width="1.5" opacity="1" stroke-linecap="round" stroke-linejoin="round"/>
<circle cx="192" cy="70.65" r="2.7" fill="#F8FAFC" stroke="none" stroke-width="1" opacity="1"/>
<path d="M187 190.0 C168.25 179.5 170.5 164.5 181.0 164.5 C186.25 164.5 187 170.5 187 172.75 C187 170.5 187.75 164.5 193.0 164.5 C203.5 164.5 205.75 179.5 187 190.0 Z" fill="#E34B46" stroke="#F8FAFC" stroke-width="1.5" opacity="1" stroke-linecap="round" stroke-linejoin="round"/>
</svg>
