<?xml version="1.0" encoding="UTF-8"?>
<svg xmlns="http://www.w3.org/2000/svg" width="256" height="256" viewBox="0 0 256 256" preserveAspectRatio="xMidYMid meet" data-icon-size="256x256">
<title>Oversize-Load Combination</title>
<desc>Editable 256 by 256 vector icon for Oversize-Load Combination. Industrial navy, steel and orange application artwork.</desc>
<defs>
<linearGradient id="silver" x1="0" y1="0" x2="1" y2="1"><stop offset="0" stop-color="#FFFFFF"/><stop offset="0.45" stop-color="#DDE4E9"/><stop offset="1" stop-color="#78848E"/></linearGradient>
<linearGradient id="dark" x1="0" y1="0" x2="1" y2="1"><stop offset="0" stop-color="#55636E"/><stop offset="0.55" stop-color="#26333E"/><stop offset="1" stop-color="#10171E"/></linearGradient>
<linearGradient id="orange" x1="0" y1="0" x2="1" y2="1"><stop offset="0" stop-color="#FF9B35"/><stop offset="0.52" stop-color="#FF6B00"/><stop offset="1" stop-color="#D94F00"/></linearGradient>
<linearGradient id="glass" x1="0" y1="0" x2="1" y2="1"><stop offset="0" stop-color="#E2F6FE"/><stop offset="0.48" stop-color="#A9D9EB"/><stop offset="1" stop-color="#3B6D85"/></linearGradient>
<linearGradient id="tire" x1="0" y1="0" x2="1" y2="1"><stop offset="0" stop-color="#38444D"/><stop offset="1" stop-color="#070A0D"/></linearGradient>
</defs>
<rect x="8" y="8" width="240" height="240" rx="31" fill="#041F3D" stroke="#173A5B" stroke-width="2" opacity="1"/>
<path d="M39 17 H217 Q239 17 239 39" fill="none" stroke="#31516E" stroke-width="1.6" opacity="0.72" stroke-linecap="round" stroke-linejoin="round"/>
<ellipse cx="128" cy="216" rx="88" ry="12" fill="#000" stroke="none" stroke-width="1" opacity="0.23"/>
<path d="M31 177 L37 132 Q39 118 52 113 H91 L112 138 L118 177 Z" fill="url(#silver)" stroke="#68747D" stroke-width="2" opacity="1" stroke-linecap="round" stroke-linejoin="round"/>
<polygon points="51.0,121.0 86.0,121.0 102.0,139.0 47.0,139.0" fill="url(#glass)" stroke="#D5EEF8" stroke-width="1.3" opacity="1"/>
<line x1="42" y1="160" x2="111" y2="160" stroke="#FF6B00" stroke-width="4" opacity="1" stroke-linecap="round"/>
<circle cx="59" cy="184" r="17" fill="url(#tire)" stroke="#5C6871" stroke-width="2" opacity="1"/>
<circle cx="59" cy="184" r="7.82" fill="url(#silver)" stroke="#25313B" stroke-width="1.7" opacity="1"/>
<circle cx="59" cy="184" r="2.72" fill="#FF6B00" stroke="none" stroke-width="1" opacity="1"/>
<rect x="111" y="126" width="99" height="51" rx="6" fill="url(#silver)" stroke="#68747D" stroke-width="2" opacity="1"/>
<circle cx="137" cy="184" r="17" fill="url(#tire)" stroke="#5C6871" stroke-width="2" opacity="1"/>
<circle cx="137" cy="184" r="7.82" fill="url(#silver)" stroke="#25313B" stroke-width="1.7" opacity="1"/>
<circle cx="137" cy="184" r="2.72" fill="#FF6B00" stroke="none" stroke-width="1" opacity="1"/>
<circle cx="190" cy="184" r="17" fill="url(#tire)" stroke="#5C6871" stroke-width="2" opacity="1"/>
<circle cx="190" cy="184" r="7.82" fill="url(#silver)" stroke="#25313B" stroke-width="1.7" opacity="1"/>
<circle cx="190" cy="184" r="2.72" fill="#FF6B00" stroke="none" stroke-width="1" opacity="1"/>
<rect x="112" y="151" width="111" height="28" rx="4" fill="url(#dark)" stroke="#74808A" stroke-width="2" opacity="1"/>
<rect x="130" y="101" width="73" height="55" rx="8" fill="url(#orange)" stroke="#D94F00" stroke-width="2" opacity="1"/>
<line x1="143" y1="107" x2="143" y2="151" stroke="#FFC247" stroke-width="5" opacity="1" stroke-linecap="round"/>
<line x1="190" y1="107" x2="190" y2="151" stroke="#FFC247" stroke-width="5" opacity="1" stroke-linecap="round"/>
<polygon points="215.0,67.0 201.2,92.8 228.8,92.8" fill="#FFC247" stroke="#F8FAFC" stroke-width="2" opacity="1"/>
<line x1="215" y1="76.75" x2="215" y2="85.3" stroke="#0F171E" stroke-width="4" opacity="1" stroke-linecap="round"/>
<circle cx="215" cy="89.2" r="2.5" fill="#0F171E" stroke="none" stroke-width="1" opacity="1"/>
</svg>
