<?xml version="1.0" encoding="UTF-8"?>
<svg xmlns="http://www.w3.org/2000/svg" width="256" height="256" viewBox="0 0 256 256" preserveAspectRatio="xMidYMid meet" data-icon-size="256x256">
<title>Pole Trailer</title>
<desc>Editable 256 by 256 vector icon for Pole Trailer. Industrial navy, steel and orange application artwork.</desc>
<defs>
<linearGradient id="silver" x1="0" y1="0" x2="1" y2="1"><stop offset="0" stop-color="#FFFFFF"/><stop offset="0.45" stop-color="#DDE4E9"/><stop offset="1" stop-color="#78848E"/></linearGradient>
<linearGradient id="dark" x1="0" y1="0" x2="1" y2="1"><stop offset="0" stop-color="#55636E"/><stop offset="0.55" stop-color="#26333E"/><stop offset="1" stop-color="#10171E"/></linearGradient>
<linearGradient id="orange" x1="0" y1="0" x2="1" y2="1"><stop offset="0" stop-color="#FF9B35"/><stop offset="0.52" stop-color="#FF6B00"/><stop offset="1" stop-color="#D94F00"/></linearGradient>
<linearGradient id="glass" x1="0" y1="0" x2="1" y2="1"><stop offset="0" stop-color="#E2F6FE"/><stop offset="0.48" stop-color="#A9D9EB"/><stop offset="1" stop-color="#3B6D85"/></linearGradient>
<linearGradient id="tire" x1="0" y1="0" x2="1" y2="1"><stop offset="0" stop-color="#38444D"/><stop offset="1" stop-color="#070A0D"/></linearGradient>
</defs>
<rect x="8" y="8" width="240" height="240" rx="31" fill="#041F3D" stroke="#173A5B" stroke-width="2" opacity="1"/>
<path d="M39 17 H217 Q239 17 239 39" fill="none" stroke="#31516E" stroke-width="1.6" opacity="0.72" stroke-linecap="round" stroke-linejoin="round"/>
<ellipse cx="128" cy="216" rx="90" ry="12" fill="#000" stroke="none" stroke-width="1" opacity="0.23"/>
<rect x="34" y="160" width="187" height="30" rx="5" fill="url(#dark)" stroke="#73808A" stroke-width="2" opacity="1"/>
<line x1="42" y1="164" x2="213" y2="164" stroke="#FF6B00" stroke-width="4" opacity="1" stroke-linecap="round"/>
<circle cx="176" cy="195" r="14" fill="url(#tire)" stroke="#5C6871" stroke-width="2" opacity="1"/>
<circle cx="176" cy="195" r="6.44" fill="url(#silver)" stroke="#25313B" stroke-width="1.7" opacity="1"/>
<circle cx="176" cy="195" r="2.24" fill="#FF6B00" stroke="none" stroke-width="1" opacity="1"/>
<circle cx="201" cy="195" r="14" fill="url(#tire)" stroke="#5C6871" stroke-width="2" opacity="1"/>
<circle cx="201" cy="195" r="6.44" fill="url(#silver)" stroke="#25313B" stroke-width="1.7" opacity="1"/>
<circle cx="201" cy="195" r="2.24" fill="#FF6B00" stroke="none" stroke-width="1" opacity="1"/>
<line x1="48" y1="108" x2="221" y2="108" stroke="url(#silver)" stroke-width="11" opacity="1" stroke-linecap="round"/>
<line x1="48" y1="122" x2="221" y2="122" stroke="url(#silver)" stroke-width="11" opacity="1" stroke-linecap="round"/>
<line x1="48" y1="136" x2="221" y2="136" stroke="url(#silver)" stroke-width="11" opacity="1" stroke-linecap="round"/>
<line x1="51" y1="96" x2="51" y2="164" stroke="#FF6B00" stroke-width="5" opacity="1" stroke-linecap="round"/>
<line x1="207" y1="96" x2="207" y2="164" stroke="#FF6B00" stroke-width="5" opacity="1" stroke-linecap="round"/>
</svg>
