<?xml version="1.0" encoding="UTF-8"?>
<svg xmlns="http://www.w3.org/2000/svg" width="256" height="256" viewBox="0 0 256 256" preserveAspectRatio="xMidYMid meet" data-icon-size="256x256">
<title>Racist or Hateful Content</title>
<desc>Editable 256 by 256 vector icon for Racist or Hateful Content. Industrial navy, steel and orange application artwork.</desc>
<defs>
<linearGradient id="silver" x1="0" y1="0" x2="1" y2="1"><stop offset="0" stop-color="#FFFFFF"/><stop offset="0.45" stop-color="#DDE4E9"/><stop offset="1" stop-color="#78848E"/></linearGradient>
<linearGradient id="dark" x1="0" y1="0" x2="1" y2="1"><stop offset="0" stop-color="#55636E"/><stop offset="0.55" stop-color="#26333E"/><stop offset="1" stop-color="#10171E"/></linearGradient>
<linearGradient id="orange" x1="0" y1="0" x2="1" y2="1"><stop offset="0" stop-color="#FF9B35"/><stop offset="0.52" stop-color="#FF6B00"/><stop offset="1" stop-color="#D94F00"/></linearGradient>
<linearGradient id="glass" x1="0" y1="0" x2="1" y2="1"><stop offset="0" stop-color="#E2F6FE"/><stop offset="0.48" stop-color="#A9D9EB"/><stop offset="1" stop-color="#3B6D85"/></linearGradient>
<linearGradient id="tire" x1="0" y1="0" x2="1" y2="1"><stop offset="0" stop-color="#38444D"/><stop offset="1" stop-color="#070A0D"/></linearGradient>
</defs>
<rect x="8" y="8" width="240" height="240" rx="31" fill="#041F3D" stroke="#173A5B" stroke-width="2" opacity="1"/>
<path d="M39 17 H217 Q239 17 239 39" fill="none" stroke="#31516E" stroke-width="1.6" opacity="0.72" stroke-linecap="round" stroke-linejoin="round"/>
<path d="M53 82 H203 V171 H129 L91 199 V171 H53 Z" fill="url(#silver)" stroke="#7D8992" stroke-width="2" opacity="1" stroke-linecap="round" stroke-linejoin="round"/>
<path d="M83 127 Q98 105 113 127 M143 127 Q158 105 173 127" fill="none" stroke="#25313B" stroke-width="6" opacity="1" stroke-linecap="round" stroke-linejoin="round"/>
<path d="M94 158 Q128 137 162 158" fill="none" stroke="#E34B46" stroke-width="6" opacity="1" stroke-linecap="round" stroke-linejoin="round"/>
<circle cx="190" cy="78" r="16" fill="#E34B46" stroke="#F8FAFC" stroke-width="2" opacity="1"/>
<line x1="183.28" y1="71.28" x2="196.72" y2="84.72" stroke="#F8FAFC" stroke-width="4" opacity="1" stroke-linecap="round"/>
<line x1="196.72" y1="71.28" x2="183.28" y2="84.72" stroke="#F8FAFC" stroke-width="4" opacity="1" stroke-linecap="round"/>
</svg>
